<?xml version="1.0" encoding="UTF-8" standalone="no"?>
<svg viewBox="0 0 100 100" version="1.1" xmlns="http://www.w3.org/2000/svg">
  <path fill-rule="evenodd" clip-rule="evenodd" d="M50 5.83301C24.7935 5.83301 4.16663 26.4598 4.16663 51.6663C4.16663 71.8348 17.4383 88.9181 35.9499 94.8931C38.2833 95.3265 39.1666 93.9181 39.1666 92.6931C39.1666 91.6015 39.0833 87.3931 39.0833 83.3931C28.3333 85.2265 25.4166 80.7265 24.5333 78.1848C24.0166 76.8765 21.8333 72.8765 19.9166 71.7848C18.3333 70.9015 16.0833 69.0681 19.8333 69.0015C23.4166 68.9348 26.0416 72.2265 26.9166 73.5765C31.1666 80.3098 38.0333 78.3515 39.3333 77.1265C39.7666 74.1265 40.9999 72.0681 42.3333 70.8431C32.2499 69.6181 21.6666 65.6181 21.6666 48.1098C21.6666 43.1932 23.4166 39.0681 27.0833 35.8015C26.5833 34.6598 24.9999 29.9931 27.4999 23.6598C27.4999 23.6598 31.4166 22.4348 39.1666 28.1848C42.8333 27.1015 46.7499 26.5515 50.6666 26.5515C54.5833 26.5515 58.4999 27.1015 62.1666 28.1848C69.9166 22.3515 73.8333 23.6598 73.8333 23.6598C76.3333 29.9931 74.7499 34.6598 74.2499 35.8015C77.9166 39.0681 79.6666 43.1098 79.6666 48.1098C79.6666 65.6931 69.0833 69.6181 58.9999 70.8431C60.6666 72.3515 62.1666 75.2265 62.1666 79.7265C62.1666 86.1015 62.0833 91.1015 62.0833 92.6931C62.0833 93.9181 62.9666 95.4098 65.2999 94.8931C83.8116 88.9181 97.0833 71.7515 97.0833 51.6663C97.0833 26.4598 76.4564 5.83301 50 5.83301Z" fill="#191717"/>
</svg>