<?xml version="1.0" encoding="UTF-8" standalone="no"?>
<svg viewBox="0 0 300 120" version="1.1" xmlns="http://www.w3.org/2000/svg">
  <g fill="#0F62FE">
    <path d="M0,0 L300,0 L300,15 L0,15 Z"/>
    <path d="M0,30 L300,30 L300,45 L0,45 Z"/>
    <path d="M0,60 L300,60 L300,75 L0,75 Z"/>
    <path d="M0,90 L300,90 L300,105 L0,105 Z"/>
    
    <path d="M130,0 L130,105 L150,105 L150,0 Z"/>
    <path d="M60,0 L60,105 L80,105 L80,0 Z"/>
    <path d="M100,45 L100,75 L40,75 L40,45 Z"/>
    <path d="M250,45 L250,75 L190,75 L190,45 Z"/>
    <path d="M225,30 L225,0 L175,0 L175,30 L185,30 L185,15 L215,15 L215,30 Z"/>
    <path d="M225,105 L225,75 L175,75 L175,105 L185,105 L185,90 L215,90 L215,105 Z"/>
  </g>
</svg>