<?xml version="1.0" encoding="UTF-8" standalone="no"?>
<svg viewBox="0 0 900 160" xmlns="http://www.w3.org/2000/svg">
  <path d="M880.6,62.5c0-14.2-10.9-24.3-24.8-24.3s-24.8,10.2-24.8,24.3c0,14.2,10.9,24.3,24.8,24.3c13.9,0.1,24.8-10.1,24.8-24.3z 
    M844.3,62.5c0-7.1,4.6-12.8,11.5-12.8c6.8,0,11.5,5.6,11.5,12.8s-4.6,12.8-11.5,12.8C848.9,75.3,844.3,69.7,844.3,62.5z M790.2,92.3 v-0.3 
    c0-17.3,12.4-31.5,29.8-31.5c17.4,0,29.6,13.9,29.6,31.2v0.3c0,17.3-12.4,31.5-29.8,31.5C802.4,123.5,790.2,109.5,790.2,92.3z 
    M835.9,92.3v-0.3c0-9.3-6.6-17.3-16.2-17.3c-10,0-15.9,7.7-15.9,17v0.3c0,9.3,6.6,17.2,16.2,17.2C830,109.2,835.9,101.6,835.9,92.3z
    M747.3,123.5c-18.2,0-31.4-13.8-31.4-31.5v-0.3c0-17.4,13.2-31.2,30.9-31.2c11.1,0,17.9,3.7,23.4,9.2l-8.3,9.5
    c-4.6-4.1-9.2-6.7-15.3-6.7c-10.1,0-17.3,8.4-17.3,18.9v0.3c0,10.5,7.1,19.1,17.3,19.1c6.8,0,10.9-2.7,15.5-6.9l8.3,8.4
    C764.9,119.9,758.2,123.5,747.3,123.5z M647.8,123h-14V36.4h33.8c17.4,0,27.9,10.3,27.9,24.3v0.3c0,16.3-12.9,24.8-29.5,24.8h-18.1V123z
    M680.3,61.5c0-7.1-4.9-11.1-13.1-11.1h-19.4v22.4h19.7c8.1,0,12.8-4.6,12.8-11.1V61.5z M553.4,123H540V62h13.4V123z M553.9,46.9
    c0,4.5-3.6,8.1-8.2,8.1c-4.6,0-8.2-3.6-8.2-8.1s3.6-8.1,8.2-8.1C550.3,38.8,553.9,42.4,553.9,46.9z M504.3,91.5l-16.2-29.2h15.5l8.2,16.5
    l8.4-16.5h15l-16.2,29v32h-14.7V91.5z M425.8,123V62.2H440V71c3.9-5.8,9.8-10.2,19.1-10.2c13.6,0,21.5,9,21.5,23.5V123h-14.1V89.6
    c0-8.5-4-12.8-10.9-12.8c-6.8,0-11.5,4.4-11.5,12.8V123H425.8z M344.8,123V36.4h14.1v35.4c4.6-6.2,11-11.2,21.3-11.2
    c15.3,0,30.3,12,30.3,31.2v0.3c0,19.2-14.8,31.2-30.3,31.2c-10.4,0-16.8-5-21.5-10.5v8.4H344.8z M396.4,92.3v-0.3c0-10-6.7-18.6-18.2-18.6
    c-11.5,0-18.7,8.9-18.7,18.6v0.3c0,9.7,7.3,18.6,18.7,18.6C390.1,110.9,396.4,102.5,396.4,92.3z M276.4,123.5
    c-18.2,0-31.4-13.8-31.4-31.5v-0.3c0-17.4,13.2-31.2,30.9-31.2c11.1,0,17.9,3.7,23.4,9.2l-8.3,9.5c-4.6-4.1-9.2-6.7-15.3-6.7
    c-10.1,0-17.3,8.4-17.3,18.9v0.3c0,10.5,7.1,19.1,17.3,19.1c6.8,0,10.9-2.7,15.5-6.9l8.3,8.4C294.1,119.9,287.3,123.5,276.4,123.5z
    M225.6,123V99.9l-27.2-37.5h17.1l17.2,25.1l17.4-25.1h16.6l-27.2,37.3V123H225.6z M151.3,123V36.4h54v12.6h-40v24.2h35.2v12.6h-35.2v24.6
    h40.5V123H151.3z M19.9,123V36.4h39c21.5,0,36.3,14.5,36.3,33.3v0.3c0,18.8-14.8,33.3-36.3,33.3h-12.7V123H19.9z M58.5,48.8h-12v42.2h12
    c12.7,0,20.6-8.5,20.6-21v-0.3C79.1,57.3,71.2,48.8,58.5,48.8z" fill="#0866FF"/>
</svg>